# xmcd
#
# Track frame offsets:
#	182
#	14165
#	27720
#	41817
#	57030
#	70355
#	84322
#	98302
#	110525
#	123117
#	136927
#	151165
#
# Disc length: 2215 seconds
#
# Revision: 0
# Processed by: cddbd v1.4PL0 Copyright (c) Steve Scherf et al.
# Submitted via: EasyCDDAExtractor 4.6.9.1
#
DISCID=9708a50c
DTITLE=Gabi Albrecht - Ein kleines Dankeschön
DYEAR=2001
DGENRE=Deutsch
TTITLE0=Ein neuer Tag-Ein neues Leben
TTITLE1=Bleib so lieb wie du bist
TTITLE2=Das Wunder der Liebe
TTITLE3=Michael
TTITLE4=Nimm mich ganz einfach in den Arm
TTITLE5=Wir sind Sand in Gottes Hand
TTITLE6=Wenn du mich lieb hast
TTITLE7=Ein kleines Dankeschön
TTITLE8=Wenn das Schicksal es will
TTITLE9=Locken im Wind
TTITLE10=In deinen Augen geht die Sonne auf
TTITLE11=Sehnsucht ist unsterblich
EXTD=
EXTT0=
EXTT1=
EXTT2=
EXTT3=
EXTT4=
EXTT5=
EXTT6=
EXTT7=
EXTT8=
EXTT9=
EXTT10=
EXTT11=
PLAYORDER=
